<?xml version="1.0" standalone="no"?>
<!DOCTYPE svg PUBLIC "-//W3C//DTD SVG 20010904//EN"
 "http://www.w3.org/TR/2001/REC-SVG-20010904/DTD/svg10.dtd">
<svg version="1.0" xmlns="http://www.w3.org/2000/svg"
 width="1121.000000pt" height="922.000000pt" viewBox="0 0 1121.000000 922.000000"
 preserveAspectRatio="xMidYMid meet">

<g transform="translate(0.000000,922.000000) scale(0.100000,-0.100000)"
fill="#000000" stroke="none">
<path d="M5415 9195 c-559 -53 -1005 -184 -1390 -408 -502 -292 -848 -765
-980 -1339 -30 -130 -31 -186 -5 -239 22 -43 83 -92 133 -108 18 -5 79 -15
137 -20 58 -6 191 -20 295 -31 105 -11 278 -30 386 -40 107 -11 248 -26 312
-34 64 -7 129 -11 144 -8 44 8 99 48 131 94 33 50 44 76 71 179 93 352 372
592 769 659 292 50 579 -4 774 -146 129 -95 229 -264 269 -454 20 -95 22 -135
23 -420 l1 -314 -40 -7 c-22 -4 -116 -14 -210 -23 -639 -60 -993 -106 -1350
-177 -669 -132 -1135 -357 -1492 -721 -121 -123 -209 -235 -286 -363 -44 -73
-147 -298 -175 -380 -188 -557 -151 -1246 94 -1726 69 -136 113 -202 203 -312
232 -280 593 -486 986 -561 189 -36 244 -40 510 -40 507 1 829 65 1166 233
230 114 429 257 695 501 78 72 148 130 156 130 7 -1 35 -36 63 -78 154 -238
369 -487 550 -637 33 -28 68 -58 79 -67 51 -46 178 -56 257 -21 25 11 99 66
165 123 175 150 303 259 364 310 30 25 88 74 130 110 42 36 147 123 233 195
176 145 193 168 191 260 -1 77 -20 113 -144 280 -235 317 -310 463 -361 710
l-23 110 -6 1490 c-7 1612 -5 1554 -62 1829 -85 415 -296 743 -640 997 -94 69
-302 186 -413 232 -248 103 -529 175 -845 218 -207 27 -648 35 -865 14z m1059
-3611 c14 -5 16 -42 16 -313 0 -489 -23 -708 -95 -926 -121 -362 -331 -628
-610 -770 -132 -67 -225 -89 -385 -89 -161 -1 -223 11 -345 69 -215 102 -355
309 -406 597 -16 93 -16 329 0 433 17 102 72 271 113 344 197 351 565 549
1164 626 179 23 517 41 548 29z"/>
</g>
</svg>
